<!DOCTYPE svg PUBLIC "-//W3C//DTD SVG 1.1//EN" "http://www.w3.org/Graphics/SVG/1.1/DTD/svg11.dtd" [
	<!ENTITY ns_flows "http://ns.adobe.com/Flows/1.0/">
]><svg xmlns="http://www.w3.org/2000/svg" xmlns:xlink="http://www.w3.org/1999/xlink" width="1000" height="1000" viewBox="0 0 1000 1000"><defs><path id="a" d="M0 0h1000v1000h-1000z"/></defs><clipPath id="b"><use xlink:href="#a" overflow="visible"/></clipPath><path clip-path="url(#b)" fill="#3B86C4" d="M449.756 39.549c-12.019-16.238-35.404-12.038-35.404-12.038 4.1 3.919 6.522 28.557 9.969 35.65 3.447 7.092 22.64 13.065 22.64 13.065-8.479-5.6-11.553-18.852-12.392-23.798-.838-4.946-5.869-11.945-5.869-11.945 7.454 2.892 13.882 18.291 18.168 28.744 4.285 10.452 19.379 14.091 19.379 14.091l1.863-2.706-9.596-4.386c-11.087-5.039-2.236-27.158-8.758-36.677m32.702-6.346c-1.77 2.8-14.72 8.773-20.776 13.346-6.056 4.573-4.472 16.145-4.472 16.145 1.397-2.986 4.099-5.88 7.919-7.523 3.82-1.644 8.572-7.129 8.572-7.129-.373 2.986-3.82 7.653-6.451 9.612-2.631 1.96-6.407 7.093-6.407 7.093 9.503-.186 20.497-4.013 23.758-11.224 3.261-7.21-2.143-20.32-2.143-20.32m-24.955 8.611c2.965 0 5.369-2.408 5.369-5.378 0-2.971-2.404-5.378-5.369-5.378-2.966 0-5.37 2.407-5.37 5.378 0 2.97 2.404 5.378 5.37 5.378m4.578-14.792c2.022 0 3.661-1.641 3.661-3.666s-1.639-3.667-3.661-3.667c-2.022 0-3.66 1.642-3.66 3.667s1.638 3.666 3.66 3.666m10.606-6.141c1.158 0 2.096-.94 2.096-2.1 0-1.159-.938-2.099-2.096-2.099-1.158 0-2.096.94-2.096 2.099-.001 1.16.937 2.1 2.096 2.1"/><path clip-path="url(#b)" fill="#3B86C4" d="M266.014 46.324l-17.914 4.791 4.814-17.829 1.846-6.837c-8.371-1.947-17.547.335-24.091 6.847-10.051 10.003-10.083 26.19-.071 36.153 10.012 9.965 26.276 9.933 36.327-.069 6.83-6.798 9.028-16.449 6.598-25.064l-7.509 2.008zm3.368-3.351l7.509-2.009c-1.146-4.063-3.318-7.897-6.527-11.09-3.494-3.477-7.75-5.733-12.236-6.776l-1.847 6.836-4.814 17.829 17.915-4.79zM680.672 51.329l-4.611-7.118c.328-.686.219-1.528-.348-2.104l-2.982-3.039-2.814-4.346c-.262-.406-.658-.671-1.093-.792l-3.371-2.281-3.636-3.704c-.34-.346-.78-.529-1.232-.562l-3.765-1.572-4.313-2.917c-.402-.274-.872-.366-1.32-.308l-4.008-.803-4.813-2.118c-.45-.188-.928-.148-1.356-.148h-4.09l-5.126-1.028c-.872-.174-1.722.128-2.09 1.028h-8.486c-1.051 0-2.158 1.05-2.158 2.087v48.164l-.007.035c-.055.264.007.527.007.774v1.682c0 1.036 1.107 2.17 2.158 2.17h8.72l4.186 6.313c.567.873 1.744 1.056 2.628.5l1.228-.81c.266-.085.515-.241.729-.445l.095-.1 41.291-25.965c.882-.556 1.141-1.722.577-2.593m-18.899-20.733l4.259 4.342-8.19 5.151-2.916-2.971c-.729-.746-.709-1.936.046-2.653l4.106-3.914c.757-.719 1.963-.699 2.695.045m-23.229 19.519l4.11-3.915c.754-.717 1.959-.698 2.69.047l1.031 1.05-8.141 5.119c-.439-.73-.338-1.686.31-2.301m-1.625-8.166l-1.723-.72c-.969-.406-1.42-1.507-1.011-2.46l2.231-5.182c.41-.955 1.529-1.399 2.497-.995l3.504 1.465-5.498 7.892zm6.966-6.684c.596-.855 1.78-1.069 2.649-.483l3.138 2.122-6.985 6.655-1.543-1.043c-.865-.589-1.087-1.756-.491-2.61l3.232-4.641zm-9.433 7.691l1.366.57-5.467 7.846c-.693-.503-.978-1.423-.627-2.239l2.231-5.183c.411-.954 1.528-1.398 2.497-.994m-8.041 9.07c-.781-.356-1.246-1.203-1.067-2.071l1.14-5.517c.209-1.014 1.214-1.67 2.244-1.464l1.454.292-3.771 8.76zm2.678 1.157l-2.899 4.162 1.306-3.032c.284-.663.912-1.072 1.593-1.13m-3.55.868l-1.998 4.641.665-3.222c.144-.705.678-1.229 1.333-1.419m5.415-.226c.412-.594 1.11-.871 1.79-.793l-3.685 3.509 1.895-2.716zm3.231-4.639l3.235-4.64c.594-.854 1.78-1.072 2.647-.484l1.223.827-6.943 6.615c-.58-.63-.672-1.587-.162-2.318m12.528-4.244c-.729-.746-.71-1.933.045-2.652l4.106-3.914c.758-.721 1.963-.699 2.693.045l2.646 2.696-8.191 5.152-1.299-1.327zm6.287-19.442l5.053 3.42-6.983 6.653-3.459-2.337c-.865-.589-1.085-1.758-.49-2.611l3.231-4.639c.595-.854 1.781-1.072 2.648-.486m-9.625-3.272l5.642 2.358-5.499 7.893-3.86-1.613c-.968-.405-1.42-1.508-1.011-2.46l2.23-5.181c.412-.954 1.53-1.4 2.498-.997m-13.479 5.664l1.139-5.515c.21-1.015 1.215-1.671 2.245-1.465l6.008 1.203-3.795 8.815-4.11-.824c-1.031-.207-1.696-1.198-1.487-2.214m1.108 4.051l3.729.748-3.794 8.814-1.832-.367c-1.031-.208-1.696-1.199-1.487-2.215l1.138-5.513c.21-1.018 1.215-1.672 2.246-1.467m-9.204-8.464c0-1.034.271-1.261 1.321-1.261h6.13l-1.937 9.001h-4.193c-1.051 0-1.321-1.075-1.321-2.111v-5.629zm0 11.257c0-1.036.271-1.716 1.321-1.716h3.808l-1.936 9.902h-1.872c-1.051 0-1.321-1.522-1.321-2.557v-5.629zm0 11.257c0-1.036.271-1.27 1.321-1.27h1.483l-1.632 9.022c-.839-.196-1.173-1.237-1.173-2.124v-5.628zm0 11.256c0-.72.416-1.337 1.021-1.652l-1.021 4.943v-3.291zm12.639-3.224c.524-.5 1.265-.634 1.914-.426l-4.32 2.716 2.406-2.29zm14.131 17.486l-4.815 3.031c-.888.554-2.065.299-2.629-.576l-8.707-13.442c-.568-.873-.305-2.034.579-2.591l4.818-3.027c.886-.558 2.062-.301 2.627.572l8.707 13.443c.566.874.305 2.034-.58 2.59m9.63-6.055l-4.816 3.028c-.887.557-2.063.3-2.627-.572l-8.707-13.443c-.566-.873-.307-2.032.579-2.59l4.818-3.028c.885-.557 2.063-.3 2.628.573l8.705 13.441c.566.874.308 2.035-.58 2.591m9.631-6.054l-4.814 3.028c-.888.555-2.064.3-2.632-.573l-8.707-13.443c-.563-.874-.303-2.034.581-2.59l4.816-3.029c.889-.559 2.064-.301 2.631.572l8.707 13.442c.565.875.306 2.034-.582 2.593m9.631-6.058l-4.815 3.029c-.886.556-2.064.302-2.63-.572l-8.707-13.442c-.564-.874-.303-2.035.581-2.591l4.816-3.028c.886-.557 2.063-.3 2.631.572l8.706 13.444c.564.871.304 2.033-.582 2.588M750 24.289s-17.539 20.639-17.539 34.065c0 9.587 7.852 17.358 17.539 17.358 9.687 0 17.54-7.771 17.54-17.358 0-13.91-17.54-34.065-17.54-34.065m.659 48.475c-2.519 0-4.89-.614-6.977-1.693 1.326.377 2.726.583 4.173.583 8.333 0 15.089-6.685 15.089-14.932 0-9.343-9.196-21.959-13.229-27.043.592-.737.944-1.152.944-1.152s15.089 17.339 15.089 29.304c0 8.247-6.756 14.933-15.089 14.933M370.802 63.052c-.008-.301.031-.597.11-.903.158-.297.309-.597.452-.901 1.145-2.435 1.783-5.14 1.783-7.989 0-2.848-.638-5.553-1.783-7.988-.143-.304-.281-.617-.328-1.015-.026-1.226.33-2.257.865-3.289 1.958-2.923 4.452-5.158 5.342-8.424-3.562.859-5.699 3.782-9.082 4.814-1.068.343-2.137 1.031-3.216.293-.221-.156-.445-.309-.673-.456-2.05-1.33-4.369-2.303-6.861-2.83-.346-.072-.695-.137-1.059-.239-3.149-1.238-3.327-4.848-5.642-6.912-1.603 2.236-.178 5.502-2.727 7.288-.264.119-.534.199-.801.279-.804.24-1.586.528-2.342.86-.316.138-.627.284-.956.414-4.037-.417-7.42-2.824-11.338-3.855-.712-.172-1.959-.343-1.959 0 1.069 3.438 6.411 4.814 6.572 8.792-.023.287-.096.565-.213.846-.203.267-.399.538-.587.816-.942 1.384-1.705 2.892-2.257 4.493-.111.321-.213.644-.31.973-.534.584-.89.929-1.424 1.272-4.274 2.407-9.082 2.751-12.821 5.845 4.451.516 10.15-1.891 13.832 1.369.049.273.104.542.165.81.425 1.874 1.131 3.646 2.074 5.273.162.279.33.554.506.825 1.586 2.899-1.263 5.477-1.441 8.4-.178.344.534.172.712.172 2.315-.86 4.452-3.267 6.905-2.489.304.136.587.302.874.46 1.436.794 2.983 1.421 4.614 1.854l1.035.258c3.311.948 3.668 4.731 5.626 7.137 2.137-2.063.178-6.189 3.564-7.287.314-.076.625-.16.932-.25 1.846-.541 3.578-1.332 5.155-2.333l.86-.554c4.626.109 8.543 3.204 12.817 4.407.534.172 1.603.688 1.603.516-2.315-3.954-7.479-6.19-8.578-10.752m17.495-35.899c0-2.071-1.61-3.749-3.595-3.749-1.986 0-3.596 1.678-3.596 3.749s1.61 3.749 3.596 3.749c1.985 0 3.595-1.677 3.595-3.749m-32.362 55.869c-1.004 0-1.818.848-1.818 1.896s.814 1.897 1.818 1.897c1.005 0 1.819-.849 1.819-1.897s-.814-1.896-1.819-1.896m33.369-8.407c-2.515 0-4.554 2.126-4.554 4.749 0 2.623 2.039 4.749 4.554 4.749 2.516 0 4.555-2.126 4.555-4.749 0-2.622-2.039-4.749-4.555-4.749m-20.999-46.77c1.102 0 1.995-.931 1.995-2.08s-.893-2.08-1.995-2.08-1.995.931-1.995 2.08.893 2.08 1.995 2.08m-25.026 47.495c-1.102 0-1.996.931-1.996 2.08s.894 2.08 1.996 2.08c1.101 0 1.995-.931 1.995-2.08s-.894-2.08-1.995-2.08m7.326-52.089c1.927-.462 2.374-5.162 1.856-7.172-.518-2.008-2.501-3.262-4.427-2.798-1.927.462-3.07 2.467-2.551 4.476.518 2.011 3.195 5.958 5.122 5.494m-41.217 32.32c-2.081.5-3.516 1.886-3.204 3.094.312 1.21 2.252 1.783 4.333 1.283 2.082-.5 6.307-2.556 5.995-3.765s-5.043-1.112-7.124-.612"/><path clip-path="url(#b)" fill-rule="evenodd" clip-rule="evenodd" fill="#3B86C4" d="M541.481 54.192c0 4.754 3.837 8.608 8.568 8.608 4.732 0 8.569-3.854 8.569-8.608 0-4.755-3.837-8.608-8.569-8.608-4.731 0-8.568 3.853-8.568 8.608m12.427-14.198c6.138 1.766 10.154 7.284 10.154 13.805 0 1.969-.453 3.847-1.169 5.559.131.1.23.205.351.326l1.923 1.948c1.183-2.359 1.96-5.018 1.96-7.833 0-8.227-5.035-15.139-13.219-16.984v3.179zm-5.115-7.687v8.807c0 .899.641 1.625 1.535 1.625.893 0 1.534-.726 1.534-1.625v-8.862c3.068-.828 6.754-4.346 6.754-8.562 0-4.832-3.985-8.75-8.794-8.75-4.81 0-8.497 3.918-8.497 8.75 0 4.334 3.376 7.922 7.468 8.617m1.207-14.821c3.711-.043 6.045 3.344 5.987 4.261.058 1.005-2.276-.824-5.987-.782-3.711-.042-6.045 1.787-5.987.782-.058-.917 2.276-4.304 5.987-4.261m31.805 52.003c-3.271-2.639-7.862-2.515-10.98.062l-9.575-7.715c-.696-.562-1.715-.452-2.275.25-.559.699-.446 1.722.249 2.285l9.534 7.679c-2.039 3.661-1.22 8.369 2.146 11.082 3.75 3.025 9.229 2.423 12.24-1.345 3.009-3.767 2.411-9.274-1.339-12.298m-41.028-5.66c.695-.562.808-1.585.249-2.285-.561-.701-1.579-.811-2.274-.25l-9.576 7.715c-3.119-2.578-7.708-2.701-10.979-.06-3.751 3.023-4.35 8.53-1.339 12.297 3.01 3.766 8.49 4.369 12.24 1.344 3.365-2.713 4.185-7.42 2.146-11.081l9.533-7.68zm8.839 4.368c-3.056 0-5.889-.969-8.216-2.61l-2.19 2.201c2.905 2.185 6.507 3.481 10.406 3.481 4.048 0 7.773-1.4 10.731-3.738l-2.177-2.187c-2.388 1.792-5.35 2.853-8.554 2.853m-13.057-8.473c-.815-1.808-.969-3.813-.969-5.925 0-6.734 3.996-12.398 11.157-13.966v-3.152c-9.207 1.627-14.214 8.684-14.214 17.118 0 2.97.589 5.766 1.896 8.218l2.13-2.293z"/><path clip-path="url(#b)" fill="#DDDCDC" d="M152.37 94.014l-51.401-52.42-52.371 53.406-18.426-18.789 69.828-71.211 69.828 71.211z"/><path clip-path="url(#b)" fill="#3B86C4" d="M885.022 86.279c-.052-.036-5.282-3.679-11.404-12.946-4.533-6.863-7.794-18.683-11.569-32.37-1.461-5.295-2.972-10.771-4.702-16.544-3.655-12.188-10.335-14.746-15.294-14.746-6.313 0-11.787 4.002-13.8 6.12-.979 1.03-1.814 2.586-2.529 4.524-.08.135-.134.287-.163.448-2.788 7.99-3.645 22.022-3.823 33.621-.237 15.338-7.118 27.836-7.188 27.961-.286.514-.217 1.154.177 1.595.393.441 1.021.585 1.569.361 4.791-1.966 7.984-2.843 10.354-2.843 3.38 0 5.281 1.685 9.257 5.495 2.468 2.364 4.556 3.373 6.983 3.373 1.767 0 3.551-.532 5.81-1.205 2.551-.759 5.725-1.704 10.193-2.281 2.277-.295 4.688-.444 7.16-.444 9.774 0 17.704 2.329 17.784 2.354.652.194 1.356-.114 1.653-.73.295-.617.096-1.356-.468-1.743m-60.503-31.85c.109-7.079.448-13.332.991-18.614l.054.299c1.183 5.461 3.339 25.107-.308 30.804-1.515 2.367-2.687 3.96-3.539 5.017 1.451-4.855 2.699-10.889 2.802-17.506m41.534 29.195c-2.592 0-5.121.158-7.52.467-4.691.606-7.984 1.587-10.63 2.376-2.042.607-3.655 1.088-5.014 1.088-1.217 0-2.67-.315-5.055-2.599-3.798-3.639-6.542-6.269-11.186-6.269-2.145 0-4.659.541-8.078 1.764.501-1.122 1.082-2.517 1.678-4.126.377.121.794.102 1.154-.118l.291-.21c.283-.156 1.331-.608 3.831-.516l.138-.002c2.07-.128 7.978.122 10.427 2.786.243.263.577.423.936.447l.197.005c.568 0 2.157-.118 3.517-1.322 1.187-1.053 1.838-2.602 1.939-4.603.038-.765-.554-1.417-1.32-1.455-.776-.042-1.421.551-1.46 1.315-.128 2.546-1.435 3.143-2.233 3.265-3.864-3.523-11.231-3.251-12.102-3.21-.32-.01-.624-.012-.914-.011.814-1.078 1.794-2.476 2.952-4.286 4.373-6.833 1.772-27.848.682-32.881-.982-4.532-.12-13.039.007-14.218.6-1.636 1.263-2.854 1.983-3.612 2.008-2.112 6.801-5.253 11.779-5.253 5.838 0 10.087 4.295 12.628 12.767 1.722 5.744 3.228 11.204 4.685 16.485 1.741 6.311 3.376 12.224 5.086 17.484-4.529-4.837-11.266-12.218-14.172-16.332-4.479-6.344-4.024-14.65-2.804-17.488l.023-.075.042-.133.027-.137.014-.128-.001-.145-.012-.119-.028-.144-.034-.115-.055-.134-.055-.108-.079-.119-.078-.098-.101-.104-.097-.081-.127-.085-.06-.041-.054-.022-.058-.032-.079-.025-.13-.04-.139-.028-.129-.013-.145.001-.121.011-.144.028-.114.034-.135.054-.109.056-.118.078-.1.078-.102.101-.084.097-.083.122-.042.062c-.422.778-10.253 19.329-4.295 42.335.162.625.727 1.04 1.346 1.04.115 0 .231-.014.349-.044.744-.191 1.192-.947.999-1.689-1.043-4.029-1.565-7.932-1.729-11.623 2.392 3.782 6.486 9.05 12.617 13.123.236.158.506.233.771.233.45 0 .891-.217 1.159-.618.426-.637.253-1.497-.386-1.922-9.029-5.999-13.455-15.044-14.14-16.532.294-5.598 1.332-10.495 2.447-14.319.477 3.467 1.672 7.159 3.892 10.303 4.451 6.302 17.055 19.445 18.736 21.191 1.397 3.573 2.886 6.694 4.555 9.221 3.011 4.557 5.807 7.813 7.957 10.003-3.34-.618-7.986-1.236-13.193-1.236m-2.483-5.916c-6.779-2.255-8.261-3.403-8.445-3.562-.406-.496-1.118-.655-1.709-.355-.651.332-.934 1.111-.645 1.781.026.062.063.147-.04.361-.949 1.972-7.481 4.551-11.815 5.751-.74.205-1.174.969-.968 1.707.171.614.73 1.016 1.339 1.016.124 0 .249-.017.373-.051 1.906-.527 11.346-3.299 13.457-6.988 2.02 1.029 4.99 2.112 7.573 2.97.728.244 1.517-.15 1.76-.876.243-.726-.149-1.511-.88-1.754M989.283 25.711c0-2.201-1.651-3.985-3.688-3.985s-3.689 1.784-3.689 3.985c0 2.202 1.652 3.986 3.689 3.986s3.688-1.784 3.688-3.986m-33.196 59.396c-1.028 0-1.864.903-1.864 2.016 0 1.114.836 2.016 1.864 2.016 1.032 0 1.866-.902 1.866-2.016 0-1.113-.834-2.016-1.866-2.016m34.229-8.938c-2.58 0-4.672 2.261-4.672 5.049 0 2.789 2.092 5.049 4.672 5.049s4.672-2.26 4.672-5.049c0-2.788-2.092-5.049-4.672-5.049m-21.54-49.722c1.13 0 2.046-.99 2.046-2.212 0-1.221-.916-2.211-2.046-2.211s-2.047.99-2.047 2.211c0 1.222.917 2.212 2.047 2.212m-25.671 50.493c-1.13 0-2.047.991-2.047 2.212s.917 2.211 2.047 2.211 2.046-.99 2.046-2.211c0-1.221-.916-2.212-2.046-2.212m7.515-55.377c1.978-.492 2.437-5.487 1.904-7.624-.532-2.136-2.565-3.468-4.542-2.975-1.978.492-3.148 2.622-2.616 4.758.531 2.137 3.279 6.334 5.254 5.841m-42.279 34.36c-2.135.532-3.604 2.005-3.285 3.29.319 1.286 2.31 1.896 4.443 1.364 2.136-.532 6.47-2.718 6.15-4.003-.32-1.285-5.172-1.183-7.308-.651m62.996 7.952c-.008-.319.032-.634.113-.959.162-.316.317-.635.464-.959 1.174-2.589 1.829-5.464 1.829-8.492 0-3.029-.655-5.904-1.829-8.492-.146-.324-.288-.657-.338-1.079-.025-1.304.34-2.401.888-3.498 2.01-3.106 4.567-5.483 5.48-8.956-3.653.914-5.845 4.022-9.316 5.118-1.096.365-2.191 1.097-3.298.312-.227-.166-.458-.328-.69-.485-2.104-1.413-4.481-2.449-7.037-3.008-.355-.078-.714-.146-1.087-.254-3.23-1.317-3.413-5.155-5.788-7.348-1.645 2.376-.183 5.848-2.796 7.747-.272.127-.549.212-.823.297-.824.256-1.626.561-2.402.914-.324.147-.643.302-.98.441-4.141-.443-7.61-3.002-11.629-4.099-.731-.182-2.011-.365-2.011 0 1.097 3.656 6.576 5.118 6.742 9.347-.023.305-.098.601-.219.9-.208.283-.409.572-.603.866-.966 1.472-1.749 3.075-2.314 4.778-.113.34-.218.684-.318 1.033-.548.622-.913.988-1.461 1.353-4.384 2.559-9.315 2.925-13.151 6.215 4.566.548 10.411-2.011 14.188 1.455.051.289.107.576.169.86.437 1.993 1.161 3.877 2.128 5.607.166.297.339.589.52.876 1.627 3.082-1.296 5.823-1.479 8.931-.183.365.548.182.73.182 2.375-.914 4.566-3.472 7.083-2.646.312.145.603.321.896.489 1.473.845 3.061 1.511 4.732 1.972l1.062.274c3.397 1.008 3.763 5.03 5.771 7.588 2.191-2.194.183-6.58 3.655-7.748.322-.081.642-.169.956-.264 1.894-.577 3.671-1.418 5.288-2.481l.883-.589c4.743.115 8.763 3.405 13.146 4.685.548.183 1.645.731 1.645.548-2.374-4.203-7.672-6.58-8.799-11.431m-11.156-3.474c-4.371 0-7.945-3.175-8.278-7.205-1.097 1.994-3.306 3.36-5.858 3.36-3.643 0-6.597-2.778-6.597-6.206 0-3.426 2.954-8.594 6.597-8.594 3.215 0 5.891 4.024 6.475 7.325 1.26-3.656 4.216-7.325 7.662-7.325 4.59 0 8.31 6.51 8.31 10.827-.002 4.318-3.721 7.818-8.311 7.818m-13.569-10.701c-1.31 0-2.37 1.063-2.37 2.373s1.061 2.372 2.37 2.372c1.309 0 2.371-1.062 2.371-2.372s-1.062-2.373-2.371-2.373m-.978 2.744c-.278 0-.505-.225-.505-.505 0-.278.227-.505.505-.505.279 0 .506.227.506.505 0 .28-.227.505-.506.505m1.649-.122c-.615 0-1.114-.499-1.114-1.114 0-.616.499-1.115 1.114-1.115s1.113.499 1.113 1.115c0 .615-.498 1.114-1.113 1.114m11.176-1.229c-1.309 0-2.371 1.062-2.371 2.372s1.063 2.372 2.371 2.372c1.31 0 2.37-1.062 2.37-2.372s-1.06-2.372-2.37-2.372m-.979 2.743c-.279 0-.505-.225-.505-.505 0-.278.226-.505.505-.505.278 0 .505.227.505.505 0 .28-.226.505-.505.505m1.649-.122c-.614 0-1.113-.499-1.113-1.114 0-.616.499-1.115 1.113-1.115.615 0 1.113.499 1.113 1.115 0 .615-.498 1.114-1.113 1.114"/><path clip-path="url(#b)" fill="#3B86C4" d="M74.135 179.569l-.093-.162-.842-1.457-4.036-6.991c3.599-4.214 4.361-10.393 1.432-15.466l-20.189-34.969c-3.717-6.437-11.948-8.643-18.386-4.926-6.438 3.717-8.644 11.949-4.927 18.386l20.19 34.969c2.928 5.073 8.66 7.503 14.109 6.493l4.036 6.991.842 1.457.093.162c1.188 2.056 3.817 2.761 5.874 1.573l.323-.187c2.057-1.187 2.761-3.816 1.574-5.873m-6.808-3.193l-.324.187c-.933.539-1.569 1.38-1.896 2.324l-2.947-5.104-1.039.192c-4.977.922-10.017-1.396-12.542-5.77l-20.19-34.969c-3.298-5.713-1.334-13.045 4.38-16.343 5.712-3.298 13.044-1.334 16.343 4.379l20.189 34.969c2.525 4.374 2.013 9.898-1.275 13.746l-.686.804 2.948 5.105c-.981-.188-2.028-.059-2.961.48m-4.355-25.114l-6.476 3.738-2.991-5.181 2.59-1.495-.747-1.295-2.591 1.495-2.243-3.886 6.476-3.738-.748-1.295-6.476 3.739-2.991-5.181 2.591-1.496-.748-1.295-2.59 1.496-2.244-3.886 6.476-3.739-.748-1.294-6.475 3.738-2.991-5.181 2.59-1.495-.748-1.295-7.771 4.486.748 1.296 2.59-1.496 2.991 5.181-6.475 3.738.747 1.295 6.476-3.738 2.243 3.885-2.59 1.496.748 1.295 2.59-1.496 2.991 5.181-6.476 3.739.748 1.295 6.476-3.739 2.243 3.885-2.59 1.496.748 1.295 2.59-1.495 2.991 5.18-6.476 3.739.748 1.295 6.476-3.739 2.243 3.886-2.59 1.495.747 1.296 2.591-1.496 2.243 3.885 2.59-1.495-2.243-3.886 2.59-1.495-.747-1.295-2.591 1.495-2.243-3.885 6.476-3.739-.748-1.294zM114.033 175.763c-2.067 0-3.741 1.823-3.741 4.071s1.674 4.07 3.741 4.07c2.063 0 3.736-1.822 3.736-4.07s-1.673-4.071-3.736-4.071m-.053-52.619c0-2.847-2.119-5.155-4.733-5.155-2.614 0-4.734 2.308-4.734 5.155 0 2.848 2.12 5.156 4.734 5.156s4.733-2.308 4.733-5.156m43.101 4.37c1.147 0 2.074-1.013 2.074-2.259 0-1.248-.927-2.259-2.074-2.259-1.143 0-2.074 1.011-2.074 2.259 0 1.245.931 2.259 2.074 2.259m-26.01 51.567c-1.144 0-2.071 1.013-2.071 2.259 0 1.248.927 2.259 2.071 2.259 1.146 0 2.074-1.011 2.074-2.259 0-1.246-.928-2.259-2.074-2.259m12.859-59.908c1.042 0 1.889-.921 1.889-2.058 0-1.139-.847-2.061-1.889-2.061-1.046 0-1.893.922-1.893 2.061 0 1.136.847 2.058 1.893 2.058m5.538 64.897c-2.004.503-2.468 5.604-1.931 7.786.541 2.183 2.6 3.544 4.605 3.039 2.001-.503 3.189-2.679 2.649-4.86-.537-2.182-3.322-6.47-5.323-5.965m37.828-73.914c0-2.848-2.119-5.156-4.733-5.156-2.614 0-4.734 2.308-4.734 5.156 0 2.847 2.12 5.156 4.734 5.156s4.733-2.31 4.733-5.156m-5.011 1.908c-1.914 0-3.465-1.566-3.465-3.499 0-1.934 1.551-3.5 3.465-3.5s3.465 1.566 3.465 3.5-1.551 3.499-3.465 3.499m-18.013 50.942c.98-1.502 1.774-3.141 2.346-4.88.115-.347.223-.699.324-1.055.554-.635.924-1.008 1.482-1.383 4.44-2.611 9.435-2.986 13.322-6.345-4.626-.561-10.548 2.053-14.375-1.487-.052-.296-.108-.589-.171-.88-.442-2.033-1.175-3.958-2.158-5.725-.167-.302-.341-.6-.523-.894-1.652-3.148 1.311-5.947 1.496-9.121.185-.373-.554-.187-.739-.187-2.409.934-4.629 3.548-7.177 2.702-.317-.148-.61-.327-.906-.499-1.496-.862-3.102-1.542-4.797-2.013l-1.077-.28c-3.44-1.029-3.81-5.136-5.845-7.75-2.224 2.24-.185 6.721-3.706 7.912-.324.083-.648.174-.969.271-1.917.588-3.719 1.448-5.357 2.534l-.893.602c-4.806-.118-8.881-3.479-13.322-4.785-.554-.188-1.666-.747-1.666-.561 2.408 4.293 7.773 6.721 8.916 11.676.007.325-.031.647-.115.979-.164.322-.32.649-.47.979-1.189 2.644-1.851 5.579-1.851 8.673 0 3.094.662 6.03 1.851 8.673.15.33.292.67.341 1.102.028 1.331-.341 2.45-.899 3.572-2.036 3.173-4.625 5.599-5.549 9.146 3.698-.933 5.919-4.106 9.436-5.226 1.111-.374 2.22-1.12 3.342-.32.23.171.464.336.701.496 2.13 1.445 4.538 2.501 7.128 3.073.363.079.725.149 1.102.258 3.273 1.347 3.458 5.267 5.866 7.506 1.667-2.426.185-5.973 2.834-7.912.276-.13.554-.218.833-.304.833-.261 1.645-.573 2.433-.934.328-.149.652-.307.994-.45 4.193.452 7.71 3.066 11.781 4.186.743.186 2.036.374 2.036 0-1.108-3.734-6.661-5.226-6.828-9.546.024-.312.101-.613.223-.918.209-.289.411-.584.606-.885m-18.272 6.591c-10.196 0-18.46-8.338-18.46-18.621 0-10.284 8.264-18.619 18.46-18.619 10.196 0 18.46 8.335 18.46 18.619 0 10.283-8.264 18.621-18.46 18.621m49.633-23.979c-.32-1.313-2.339-1.935-4.5-1.392-2.165.543-6.557 2.776-6.232 4.088.324 1.312 5.242 1.208 7.403.665 2.165-.543 3.653-2.048 3.329-3.361"/><path fill="#6399CB" d="M545.942 122.945c0-3.008-2.29-5.456-5.118-5.456-2.807 0-5.097 2.447-5.097 5.456 0 3.008 2.29 5.455 5.097 5.455 2.828 0 5.118-2.447 5.118-5.455zm-8.284 0c0-1.937 1.426-3.514 3.166-3.514 1.751 0 3.177 1.577 3.177 3.514 0 1.936-1.426 3.507-3.177 3.507-1.74 0-3.166-1.571-3.166-3.507zm-29.925 65.838c-1.695 0-3.064 1.454-3.064 3.244 0 1.785 1.369 3.238 3.064 3.238 1.684 0 3.053-1.454 3.053-3.238 0-1.79-1.369-3.244-3.053-3.244zm0 4.535c-.629 0-1.122-.578-1.122-1.291 0-.718.493-1.296 1.122-1.296.617 0 1.122.578 1.122 1.296 0 .713-.504 1.291-1.122 1.291zm38.389-14.587c-3.424 0-6.207 2.98-6.207 6.651s2.783 6.65 6.207 6.65c3.435 0 6.219-2.98 6.219-6.65s-2.784-6.651-6.219-6.651zm0 11.36c-2.357 0-4.266-2.116-4.266-4.708s1.908-4.709 4.266-4.709 4.276 2.116 4.276 4.709-1.919 4.708-4.276 4.708zm-24.155-65.345c1.796 0 3.255-1.555 3.255-3.463s-1.459-3.463-3.255-3.463c-1.797 0-3.267 1.555-3.267 3.463s1.459 3.463 3.267 3.463zm0-4.978c.729 0 1.324.679 1.324 1.515 0 .836-.595 1.516-1.324 1.516-.741 0-1.325-.679-1.325-1.516 0-.836.584-1.515 1.325-1.515zm-28.803 59.828c-1.796 0-3.256 1.555-3.256 3.463s1.46 3.458 3.256 3.458 3.266-1.549 3.266-3.458-1.47-3.463-3.266-3.463zm0 4.978c-.73 0-1.325-.679-1.325-1.516 0-.836.595-1.515 1.325-1.515.74 0 1.324.679 1.324 1.515 0 .837-.584 1.516-1.324 1.516zm8.059-65.278c.202 0 .404-.028.606-.073 1.392-.348 2.38-1.858 2.84-4.361.348-1.841.348-4.013.012-5.394-.629-2.475-2.717-4.204-5.107-4.204-.394 0-.786.05-1.168.146-1.335.331-2.458 1.207-3.132 2.458-.673 1.229-.853 2.671-.516 4.075.628 2.527 3.637 7.353 6.465 7.353zm-4.265-10.489c.426-.774 1.1-1.308 1.908-1.51.235-.056.471-.084.707-.084 1.47 0 2.828 1.145 3.222 2.722.269 1.123.269 3.002-.022 4.568-.337 1.796-.954 2.716-1.415 2.829l-.135.017c-1.414 0-4.018-3.609-4.579-5.876-.225-.926-.113-1.869.314-2.666zm-38.748 46.729c-1.526 0-3.165.174-4.276.449-2.952.741-4.883 2.885-4.39 4.877.371 1.515 2.032 2.492 4.221 2.492.629 0 1.28-.084 1.931-.247 1.348-.337 3.256-1.156 4.748-2.038 2.212-1.313 3.154-2.503 2.862-3.642-.315-1.274-1.976-1.891-5.096-1.891zm-2.975 5.685c-.505.123-.999.185-1.471.185-1.212 0-2.2-.427-2.335-1.01-.201-.792 1.033-2.037 2.975-2.525.954-.236 2.437-.388 3.806-.388 1.886 0 2.806.27 3.143.438-.562.864-3.794 2.716-6.118 3.3zm57.078-21.198c-3.569 0-6.611 3.003-8.419 6.415-1.347-3.21-4.063-6.415-7.431-6.415-4.782 0-8.374 6.454-8.374 10.636 0 4.389 3.761 7.953 8.374 7.953 2.335 0 4.513-.909 6.062-2.47 1.336 3.946 5.275 6.797 9.788 6.797 5.68 0 10.304-4.383 10.304-9.766 0-5.175-4.422-13.15-10.304-13.15zm-10.125 13.369c-1.111 2.021-3.3 3.278-5.725 3.278-3.547 0-6.432-2.694-6.432-6.011 0-3.351 2.94-8.694 6.432-8.694 2.94 0 5.68 3.917 6.309 7.437l.381 2.211-.965 1.779zm10.125 7.599c-4.333 0-7.981-3.165-8.307-7.212l-.157-1.902.786-2.329c1.302-3.766 4.354-7.583 7.678-7.583 4.534 0 8.362 6.881 8.362 11.208.001 4.31-3.748 7.818-8.362 7.818zm18.599 11.847c-2.267-2.177-4.411-4.237-5.106-7.083 0-.197.022-.404.067-.623.179-.337.336-.673.493-1.016 1.415-3.131 2.133-6.482 2.133-9.951 0-3.474-.718-6.819-2.133-9.956-.135-.309-.247-.573-.292-.881-.022-1.1.247-2.122.876-3.384.662-1.027 1.392-2.003 2.11-2.952 1.661-2.194 3.367-4.467 4.131-7.352l.404-1.594-1.583.398c-2.335.589-4.142 1.88-5.871 3.131-1.504 1.083-2.94 2.105-4.646 2.649-.259.084-.517.185-.764.286-.83.326-1.526.578-2.065.202-.258-.197-.527-.387-.808-.573-2.515-1.689-5.276-2.879-8.217-3.524l-.27-.056c-.28-.056-.562-.118-.842-.196-1.763-.747-2.57-2.318-3.502-4.131-.707-1.375-1.426-2.8-2.66-3.929l-.809-.763-.64.92c-.932 1.358-1.111 2.952-1.246 4.361-.18 1.661-.337 3.104-1.594 4.063-.202.095-.449.168-.707.252-.954.297-1.897.657-2.807 1.072l-.325.146-.517.236c-2.469-.314-4.736-1.33-7.127-2.408-1.763-.792-3.581-1.611-5.546-2.149-.505-.129-1.268-.264-1.874-.264-1.504 0-1.583 1.005-1.583 1.207v.146l.045.134c.629 2.116 2.302 3.581 3.929 5.001 1.785 1.566 3.469 3.042 3.592 5.214-.022.185-.067.37-.135.561-.213.303-.426.606-.628.915-1.134 1.74-2.055 3.625-2.705 5.601l-.314.988c-.472.533-.809.864-1.258 1.162-1.976 1.162-4.119 1.925-6.195 2.666-2.975 1.061-6.062 2.161-8.688 4.428l-1.684 1.437 2.2.264c1.661.202 3.794.028 5.758-.174 1.303-.129 2.661-.27 3.918-.27 2.425 0 4.119.505 5.455 1.628l.135.662c.505 2.301 1.347 4.512 2.492 6.578.19.337.381.668.583.994.898 1.729.202 3.395-.583 5.326-.528 1.274-1.078 2.593-1.19 4.036-.09.309-.045.617.112.887.157.247.472.544 1.101.544.157 0 .348-.022.493-.04l.247-.011.18-.067c.966-.37 1.863-.943 2.739-1.498 1.594-1.005 3.109-1.908 4.489-1.476.247.112.483.252.707.381l.18.106c1.74.999 3.604 1.774 5.534 2.307l.943.247.224.056c2.088.623 2.964 2.498 3.996 4.669.562 1.212 1.146 2.464 1.998 3.536l.674.864.774-.774c1.291-1.308 1.516-3.087 1.695-4.664.247-2.071.471-3.278 1.998-3.805.358-.095.718-.196 1.077-.303 2.178-.668 4.266-1.645 6.174-2.907l.494-.32.246-.174c2.964.157 5.658 1.465 8.509 2.845 1.841.887 3.727 1.802 5.657 2.369.18.062.438.168.685.27.685.286 1.066.438 1.403.438l.314-.011.718-.449v-.814l-.134-.219c-1.176-2.105-2.939-3.794-4.634-5.422zm-3.165 2.083c-3.008-1.459-6.117-2.963-9.608-3.048l-.303-.005-.247.163-.539.354-.46.309c-1.763 1.162-3.671 2.06-5.68 2.671-.337.106-.685.202-1.021.286l-.079.022c-2.795.943-3.087 3.435-3.333 5.433-.102.875-.202 1.717-.472 2.43-.359-.623-.674-1.291-.988-1.987-1.077-2.267-2.278-4.838-5.23-5.719l-.27-.067-.897-.236c-1.773-.488-3.491-1.201-5.097-2.122l-.168-.101c-.28-.163-.572-.336-.909-.488l-.112-.039c-.449-.157-.942-.236-1.426-.236-1.739 0-3.267.965-4.748 1.897-.605.382-1.189.747-1.751 1.033.191-.814.539-1.639.876-2.492.875-2.094 1.841-4.462.505-7.01l-.033-.062c-.202-.314-.382-.628-.562-.943-1.056-1.897-1.818-3.929-2.29-6.039-.067-.309-.123-.617-.18-.932l-.056-.325-.236-.225c-2.29-2.099-5.096-2.34-7.004-2.34-1.369 0-2.762.14-4.108.275-.854.09-1.661.168-2.447.219 1.773-1.004 3.693-1.695 5.702-2.402 2.155-.774 4.378-1.566 6.578-2.851.696-.477 1.167-.943 1.818-1.689l.146-.163.057-.213c.112-.376.225-.752.359-1.123.595-1.813 1.437-3.542 2.48-5.146.213-.314.415-.628.64-.932l.123-.213c.169-.438.281-.864.314-1.296l.012-.062-.012-.056c-.123-3.042-2.312-4.967-4.254-6.662-1.122-.977-2.188-1.914-2.851-2.991.201.034.393.073.572.118 1.796.488 3.547 1.28 5.241 2.043 2.492 1.123 5.085 2.284 7.959 2.599l.235.022.236-.096c.28-.112.55-.241.819-.365l.313-.146c.831-.381 1.707-.707 2.594-.988.313-.095.673-.208 1.032-.376l.157-.095c2.009-1.465 2.245-3.603 2.447-5.489.078-.792.168-1.561.37-2.256.494.707.909 1.515 1.347 2.346 1.011 1.998 2.065 4.058 4.535 5.068l.09.034c.359.101.695.174 1.032.241l.247.056c2.717.595 5.254 1.684 7.565 3.244l.764.527c.527.382 1.122.572 1.751.572.786 0 1.504-.286 2.144-.539.225-.09.438-.18.651-.247 1.998-.634 3.614-1.796 5.175-2.918 1.122-.802 2.188-1.571 3.367-2.144-.786 1.706-1.931 3.221-3.12 4.81-.741.988-1.505 2.003-2.223 3.115l-.057.09c-.785 1.583-1.134 2.936-1.1 4.389l.011.095c.067.606.27 1.072.449 1.504 1.313 2.879 1.976 5.955 1.976 9.148s-.662 6.269-1.976 9.148c-.157.354-.314.696-.494 1.039l-.078.208c-.112.472-.168.904-.146 1.341l.022.196c.797 3.463 3.277 5.843 5.68 8.144.909.881 1.796 1.734 2.581 2.627-1.455-.517-2.891-1.213-4.407-1.942zm-30.654-25.963c-1.998 0-3.615 1.633-3.615 3.637 0 2.009 1.617 3.643 3.615 3.643 2.009 0 3.637-1.633 3.637-3.643-.001-2.004-1.628-3.637-3.637-3.637zm.762 2.385c.157 0 .27.124.27.281 0 .157-.112.28-.27.28s-.292-.124-.292-.28c0-.157.135-.281.292-.281zm-2.255 1.106c0-.106.033-.202.101-.27.067.242.169.466.304.674-.226 0-.405-.186-.405-.404zm1.493 1.846c-.359 0-.696-.118-.966-.314.314-.022.595-.14.831-.326.393.186.875.242 1.324.152-.303.303-.719.488-1.189.488zm13.29-3.771c-1.998 0-3.615 1.633-3.615 3.637 0 2.009 1.617 3.643 3.615 3.643 2.009 0 3.637-1.633 3.637-3.643 0-2.004-1.628-3.637-3.637-3.637zm.763 2.385c.157 0 .27.124.27.28 0 .157-.112.281-.27.281s-.292-.124-.292-.281c0-.156.134-.28.292-.28zm-2.256 1.106c0-.106.033-.202.101-.27.067.242.169.466.304.674-.226 0-.405-.186-.405-.404zm1.493 1.846c-.359 0-.696-.118-.966-.314.314-.022.584-.14.819-.326.404.186.887.242 1.336.152-.314.303-.718.488-1.189.488zm180.437-27.602c-.303-.786-1.179-1.189-1.965-.892l-6.645 2.486h-5.5l-7.655-2.43-5.074-3.822c-.313-.247-.729-.348-1.145-.292l-5.59.831c-.517-.573-.876-.938-.921-.982-.426-.426-1.066-.561-1.627-.348-.079.028-.394.157-.819.387-.045-.505-.157-.994-.371-1.431.326-.371.539-.848.539-1.381 0-1.15-.932-2.082-2.099-2.082-.809 0-1.505.46-1.841 1.128l-.304-.034-.09.011c-.348-.657-1.044-1.105-1.829-1.105-1.168 0-2.1.932-2.1 2.082 0 .455.146.87.394 1.218-.292.562-.472 1.196-.472 1.88l.022.213c-.562-.331-1.269-.297-1.773.129l-.359.331-5.702-.847c-.404-.056-.819.045-1.145.297l-5.074 3.816-7.655 2.436h-5.488l-6.656-2.486c-.786-.297-1.662.101-1.953.887-.304.786.09 1.667.887 1.959l6.903 2.587c.179.062.358.095.538.095h6.017c.157 0 .314-.022.472-.073l8.127-2.582c.157-.05.314-.134.448-.235l4.76-3.592 2.851.421c-.83.949-1.56 1.953-2.222 3.003l-4.086.713c-.18.017-.337.062-.494.134l-8.015 3.822-2.93 1.229-4.456.371-4.119-1.628c-.741-.292-1.583.073-1.875.809-.292.741.067 1.577.809 1.869l4.444 1.751c.157.067.337.101.517.101l.135-.005 5.006-.416c.157-.017.314-.05.449-.112l3.177-1.33.067-.028 7.801-3.721 1.583.168c-.505 1.184-.932 2.413-1.279 3.688l-3.054 1.633c-.213.112-.381.275-.516.472l-4.535 6.729-5.197 5.422-4.041 3.16-3.929 1.672c-.718.314-1.066 1.162-.752 1.892.236.544.774.87 1.336.87.18 0 .382-.034.562-.112l4.097-1.751c.124-.05.225-.112.326-.191l4.265-3.333.157-.141 5.354-5.584.146-.191 4.412-6.544.595-.208c-.247 1.857-.359 3.794-.292 5.803l-1.863 2.441c-.135.163-.225.354-.27.556l-2.155 9.541-2.593 9.895-2.582 8.475c-.235.763.191 1.566.954 1.796.146.039.292.062.427.062.617 0 1.189-.398 1.381-1.021l2.593-8.502.022-.056 2.604-9.968 1.886-8.362c.291 1.998.695 4.058 1.246 6.179 1.29 4.905 7.891 10.366 15.287 10.366 3.379 0 8.206-1.179 12.056-6.808 1.538-2.245 2.57-4.703 3.132-7.347l1.369 6.017 2.582 9.923.022.056 2.593 8.502c.191.623.764 1.021 1.381 1.021.135 0 .28-.017.427-.062.763-.23 1.189-1.033.954-1.796l-2.582-8.475-2.57-9.844-2.178-9.592c-.045-.202-.135-.387-.27-.55l-1.269-1.672c-.123-2.122-.516-4.344-1.145-6.662l.853.297 4.412 6.539.146.191 5.354 5.59.157.135 4.265 3.333c.102.079.202.141.326.191l4.097 1.751c.18.079.382.118.562.118.562 0 1.1-.326 1.336-.87.314-.735-.034-1.577-.752-1.891l-3.929-1.678-4.041-3.154-5.197-5.421-4.535-6.735c-.123-.196-.303-.354-.516-.466l-3.884-2.077c-.449-1.19-.954-2.402-1.516-3.643l2.649.225 7.801 3.727.067.022 3.177 1.336c.135.062.292.095.449.106l5.006.421.135.006c.18 0 .359-.034.527-.101l4.434-1.751c.741-.298 1.101-1.134.809-1.869-.292-.741-1.134-1.1-1.875-.808l-4.119 1.627-4.456-.37-2.93-1.229-8.004-3.822c-.156-.073-.325-.124-.505-.135l-4.646-.393-.247-.511c-.472-.937-1.078-1.891-1.729-2.767l3.165-.466 4.76 3.586c.134.106.291.185.448.241l8.139 2.582c.146.051.303.073.46.073h6.017c.18 0 .359-.034.538-.096l6.903-2.587c.797-.304 1.201-1.18.898-1.966zm-29.981 31.469c-2.447 3.586-5.747 5.478-9.53 5.478-5.746 0-11.348-4.35-12.336-8.093-2.379-9.047-3.188-21.484 6.028-30.139l.247.197.28.179c.292.135 2.829 1.353 4.973 1.353 1.561 0 2.402-.645 2.84-1.184.505-.64 1.1-1.1 1.583-1.403.977 1.078 2.66 3.053 3.535 4.866l.438.848.235.455c-.696.331-1.773.421-1.212.471l1.515.124c2.593 5.134 8.004 17.183 1.404 26.848zm-394.438-41.543c-7.318-7.313-19.217-7.313-26.535 0-7.318 7.319-7.318 19.223 0 26.536l36.683 36.677c7.318 7.318 19.228 7.318 26.546 0 7.319-7.313 7.319-19.217 0-26.535l-36.694-36.678zm-24.2 24.195c-6.028-6.028-6.028-15.827 0-21.854 6.027-6.022 15.826-6.022 21.865.005l17.174 17.169-21.865 21.849-17.174-17.169zm58.548 36.677c-6.017 6.028-15.827 6.022-21.854 0l-17.174-17.168 21.854-21.849 17.174 17.168c6.039 6.022 6.039 15.827 0 21.849zm60.703-24.195l-36.693-36.677c-7.318-7.313-19.228-7.313-26.547 0-7.318 7.319-7.318 19.223 0 26.536l36.694 36.677c7.318 7.318 19.228 7.318 26.546 0 7.319-7.314 7.319-19.217 0-26.536zm-60.893-12.482c-6.028-6.028-6.028-15.827 0-21.854 6.027-6.022 15.838-6.022 21.854.005l17.174 17.168-21.854 21.849-17.174-17.168zm58.547 36.677c-6.027 6.028-15.838 6.022-21.854 0l-17.174-17.168 21.854-21.849 17.174 17.168c6.029 6.022 6.029 15.827 0 21.849zm463.503-23.465c4.962-.236 8.924-4.372 8.924-9.423 0-2.391-.909-4.697-2.525-6.438 1.089-1.24 1.706-2.845 1.706-4.518 0-3.76-3.042-6.813-6.779-6.813-3.075 0-5.691 2.077-6.499 4.939-.696-.663-1.438-1.269-2.234-1.813 1.707-1.291 2.717-3.312 2.717-5.517 0-3.805-3.075-6.909-6.847-6.909-2.2 0-4.255 1.066-5.534 2.823-1.201-.589-2.515-.898-3.85-.898-4.603 0-8.396 3.592-8.744 8.138-2.055-1.431-4.502-2.206-7.027-2.206-6.813 0-12.358 5.579-12.358 12.437 0 6.432 4.883 11.741 11.112 12.375-2.548 1.454-4.265 4.198-4.265 7.341 0 4.652 3.76 8.435 8.373 8.435 3.581 0 6.69-2.245 7.88-5.562.449.252.921.482 1.392.69-1.1 1.28-1.729 2.918-1.729 4.642 0 3.895 3.154 7.066 7.027 7.066 3.861 0 7.015-3.171 7.015-7.066 0-1.291-.348-2.548-.998-3.643.336-.084.685-.174 1.01-.28.92 3.238 3.839 5.511 7.251 5.511 4.153 0 7.543-3.401 7.543-7.588-.001-2.266-.955-4.32-2.561-5.723zm-4.983 11.354c-2.828 0-5.208-2.133-5.545-4.956-.033-.303-.202-.561-.46-.724-.259-.152-.584-.18-.842-.079-1.066.404-2.178.696-3.289.858-.37.056-.662.309-.774.662-.124.348-.034.735.225.999.954.965 1.481 2.245 1.481 3.604 0 2.823-2.278 5.113-5.073 5.113-2.807 0-5.074-2.29-5.074-5.113 0-1.656.809-3.222 2.155-4.176.303-.219.46-.578.404-.949-.057-.365-.314-.667-.651-.786-1.269-.421-2.48-1.01-3.603-1.745-.157-.101-.349-.152-.528-.152-.134 0-.269.028-.381.079-.304.129-.517.398-.573.718-.572 3.064-3.221 5.287-6.319 5.287-3.547 0-6.42-2.907-6.42-6.477 0-3.57 2.873-6.477 6.42-6.477l.314.017.157.005c.314 0 .606-.14.785-.381.203-.258.247-.601.146-.904-.135-.421-.247-.797-.337-1.156-.067-.253-.235-.472-.46-.606s-.494-.168-.741-.101c-.897.247-1.807.371-2.728.371-5.735 0-10.405-4.703-10.405-10.484s4.67-10.484 10.405-10.484c2.817 0 5.455 1.117 7.42 3.137.27.281.707.365 1.055.236l.191.174-.034-.264c.349-.213.517-.612.449-1.016-.09-.443-.135-.887-.135-1.324 0-3.789 3.064-6.87 6.825-6.87 1.29 0 2.559.371 3.659 1.072.224.146.482.191.763.124.27-.073.482-.247.606-.488.864-1.627 2.525-2.632 4.355-2.632 2.705 0 4.916 2.223 4.916 4.95 0 2.015-1.201 3.811-3.053 4.58-.337.141-.573.478-.596.848-.022.376.169.729.506.909 1.751.988 3.3 2.279 4.568 3.845.235.292.628.421.987.331l.124.14v-.185c.393-.157.628-.544.605-.965v-.101l-.011-.196c0-2.677 2.166-4.86 4.815-4.86 2.671 0 4.826 2.183 4.826 4.86 0 1.459-.65 2.834-1.773 3.76-.225.185-.358.455-.358.747s.123.572.336.757c1.673 1.426 2.627 3.502 2.627 5.691 0 4.125-3.334 7.476-7.431 7.476-.64 0-1.302-.09-1.953-.275-.427-.112-.898.09-1.111.483l-.359.64c-.157.258-.19.567-.078.853.112.281.337.494.628.584 2.357.735 3.929 2.896 3.929 5.382.003 3.108-2.5 5.634-5.587 5.634zm-27.702-41.689c.18.185.426.292.695.292.247 0 .494-.107.674-.292.382-.382.382-.999 0-1.38l-8.194-8.256c-.359-.371-1.01-.371-1.369 0-.382.381-.382.999 0 1.386l8.194 8.25zm-26.446 16.427h-7.094c-.562 0-1.01.46-1.01 1.021 0 .562.448 1.021 1.01 1.021h7.094c.562 0 1.011-.46 1.011-1.021-.001-.56-.45-1.021-1.011-1.021zm15.939 24.504l-14.3 14.413c-.18.185-.292.426-.292.69 0 .264.112.51.292.69.18.186.426.287.685.287.258 0 .505-.101.685-.287l14.3-14.407c.191-.185.292-.432.292-.69 0-.264-.101-.505-.292-.696-.359-.365-1-.365-1.37 0zm19.037 10.214c-.562 0-1.01.455-1.01 1.021v6.123c0 .567.448 1.021 1.01 1.021s1.011-.455 1.011-1.021v-6.123c0-.566-.449-1.021-1.011-1.021zm30.734-14.861c-.382-.371-1.01-.371-1.381 0-.19.185-.28.432-.28.696 0 .258.09.505.28.69l14.088 14.182c.179.186.426.292.685.292.258 0 .505-.106.685-.292.18-.185.292-.426.292-.69 0-.258-.112-.505-.292-.69l-14.077-14.188zm1.212-10.159c0 .567.448 1.021 1.01 1.021h8.104c.561 0 1.021-.455 1.021-1.021 0-.561-.461-1.016-1.021-1.016h-8.104c-.561.001-1.01.455-1.01 1.016zm14.693-31.036c-.37-.365-.999-.365-1.369 0l-10.663 10.742c-.191.185-.281.432-.281.69 0 .264.09.505.281.69.18.185.426.292.685.292.258 0 .505-.107.685-.292l10.663-10.736c.191-.186.281-.432.281-.69-.001-.264-.091-.511-.282-.696zm-58.458 8.694c-5.534 0-10.046 4.535-10.046 10.114 0 .539.438.977.965.977.539 0 .977-.438.977-.977 0-4.496 3.637-8.155 8.104-8.155.527 0 .977-.443.977-.982-.001-.539-.45-.977-.977-.977zm15.231-4.631c-2.772 0-5.028 2.279-5.028 5.08 0 .539.427.977.965.977.539 0 .977-.438.977-.977 0-1.723 1.381-3.121 3.087-3.121.539 0 .977-.438.977-.977s-.439-.982-.978-.982zm12.168 2.992c.539 0 .977-.438.977-.977 0-2.801-2.256-5.079-5.04-5.079-.539 0-.965.443-.965.982 0 .539.426.977.965.977 1.706 0 3.098 1.397 3.098 3.121-.001.538.438.976.965.976z"/><path fill="#3A86C4" d="M981.036 135.381l-1.886-2.026c-8.284-8.065-21.664-8.037-29.926.056l-1.919 1.925c-6.544 6.403-17.051 6.302-23.448-.236l-1.74-1.386c-4.321-4.417-10.113-6.533-16.377-6.365v4.439c4.703-.174 9.754 1.504 13.223 5.046l1.549 1.386c8.127 8.284 21.563 8.413 29.847.297l2.01-1.925c6.566-6.42 17.286-6.443 23.863-.045l1.706 2.032c4.805 4.664 12.359 6.555 17.063 5.736v-4.49c-4.704.849-10.025-.61-13.965-4.444zm0 17.275l-1.886-2.031c-8.284-8.06-21.664-8.037-29.926.056l-1.919 1.931c-6.544 6.403-17.051 6.297-23.448-.242l-1.74-1.386c-4.321-4.417-10.113-6.533-16.377-6.359v4.434c4.703-.174 9.754 1.504 13.223 5.045l1.549 1.386c8.127 8.284 21.563 8.413 29.847.303l2.01-1.931c6.566-6.421 17.286-6.443 23.863-.045l1.706 2.032c4.805 4.664 12.359 6.555 17.063 5.741v-4.496c-4.704.849-10.025-.61-13.965-4.438zm0 17.27l-1.886-2.032c-8.284-8.06-21.664-8.037-29.926.062l-1.919 1.925c-6.544 6.404-17.051 6.297-23.448-.241l-1.74-1.386c-4.321-4.417-10.113-6.533-16.377-6.359v4.434c4.703-.168 9.754 1.504 13.223 5.045l1.549 1.386c8.127 8.284 21.563 8.419 29.847.303l2.01-1.931c6.566-6.42 17.286-6.443 23.863-.045l1.706 2.032c4.805 4.664 12.359 6.561 17.063 5.742v-4.496c-4.704.847-10.025-.612-13.965-4.439zm6.611-40.516c2.346 0 4.243-1.903 4.243-4.254s-1.897-4.26-4.243-4.26-4.254 1.908-4.254 4.26 1.909 4.254 4.254 4.254zm.292-8.132c1.426 0 2.593 1.167 2.593 2.599 0 1.437-1.167 2.598-2.593 2.598s-2.594-1.162-2.594-2.598c.001-1.432 1.169-2.599 2.594-2.599zm-54.316 14.558c1.908 0 3.468-1.555 3.468-3.469 0-1.919-1.549-3.474-3.468-3.474-1.908 0-3.458 1.555-3.458 3.474 0 1.915 1.55 3.469 3.458 3.469zm.246-6.628c1.168 0 2.11.943 2.11 2.116 0 1.167-.942 2.116-2.11 2.116-1.167 0-2.109-.949-2.109-2.116 0-1.173.942-2.116 2.109-2.116zm-25.412 29.684c1.908 0 3.457-1.56 3.457-3.474 0-1.919-1.549-3.474-3.457-3.474s-3.457 1.555-3.457 3.474 1.549 3.474 3.457 3.474zm.247-6.634c1.155 0 2.11.949 2.11 2.122 0 1.167-.955 2.116-2.11 2.116-1.179 0-2.122-.948-2.122-2.116 0-1.173.943-2.122 2.122-2.122zm84.948 15.535c0-1.47-1.189-2.666-2.66-2.666s-2.66 1.196-2.66 2.666c0 1.476 1.189 2.671 2.66 2.671s2.66-1.195 2.66-2.671zm-4.096-.797c0-.898.729-1.627 1.628-1.627.897 0 1.616.729 1.616 1.627s-.719 1.627-1.616 1.627c-.899.001-1.628-.729-1.628-1.627zm-51.578 3.468c1.471 0 2.66-1.195 2.66-2.671 0-1.47-1.189-2.666-2.66-2.666-1.47 0-2.66 1.196-2.66 2.666-.001 1.476 1.19 2.671 2.66 2.671zm.179-5.095c.898 0 1.628.729 1.628 1.627s-.729 1.627-1.628 1.627c-.897 0-1.616-.729-1.616-1.627 0-.904.719-1.627 1.616-1.627zm29.14-25.464c0-2.211-1.773-4.002-3.984-4.002-2.2 0-3.985 1.791-3.985 4.002 0 2.206 1.785 3.996 3.985 3.996 2.21 0 3.984-1.79 3.984-3.996zm-6.14-1.201c0-1.347 1.089-2.441 2.436-2.441 1.336 0 2.425 1.094 2.425 2.441s-1.089 2.441-2.425 2.441c-1.347.001-2.436-1.094-2.436-2.441z"/><path fill="#3B86C4" d="M33.985 211.868c10.691.505 16.004 10.78 20.454 19.148 3.014 5.669 6.351 11.159 9.981 16.45 3.742 5.455 8.337 10.276 11.844 15.888 3.342 5.347 4.704 12.156.376 17.439-2.9 3.54-8.226 4.03-12.444 4.059-7.724.054-20.909-2.707-23.469-11.313l-3.289 4.344c3.409-.26 10.525 2.483 11.916 5.972.963 2.418-13.584 4.355-14.77 4.332-5.849-.117-11.623-6.417-13.396-11.562-1.12-3.248-.811-7.085.869-10.069 1.404-2.494 4.412-4.244 6.343-6.319 3.001-3.228-1.813-8.091-4.824-4.854-2.861 3.077-6.633 5.429-8.281 9.466-2.056 5.041-2.051 10.709.109 15.725 3.818 8.862 13.066 15.22 22.721 14.344 6-.545 19.437-3.447 17.949-12.06-1.214-7.027-12.135-12.335-18.637-11.839-2.145.164-3.964 2.075-3.29 4.345 3.421 11.494 17.44 15.533 28.023 16.284 12.712.9 24.892-6.017 24.015-20.316-.439-7.166-5.012-13.379-9.317-18.754-5.688-7.104-10.688-14.511-15.14-22.461-6.43-11.482-12.912-24.413-27.744-25.113-4.398-.207-4.379 6.658.001 6.864z"/></svg>